<?xml version="1.0" encoding="utf-8"?>
<!-- Generator: Adobe Illustrator 26.0.2, SVG Export Plug-In . SVG Version: 6.00 Build 0)  -->
<svg version="1.1" id="Layer_1" xmlns="http://www.w3.org/2000/svg" xmlns:xlink="http://www.w3.org/1999/xlink" x="0px" y="0px"
	 viewBox="0 0 412 166" style="enable-background:new 0 0 412 166;" xml:space="preserve">
<style type="text/css">
	.st0{fill:#D11242;}
</style>
<g>
	<path class="st0" d="M153.36,46.28c0.78,4,0.78,7.31,0.85,11.72c-2.03-0.07-4.56,0.63-5.91-0.4c-0.86-2.16-2.95-3.83-4.62-4.36
		c-1.84-0.42-4.95-0.55-5.78,2.74c-0.69,2.8,2.36,3.89,5.76,5.07c5.04,1.78,12.43,4.19,13.74,11.11c0.23,4.03-0.12,7.55-2.69,10.82
		c-4.7,4.68-11.47,5.25-17.34,5.59c-0.55,0.04-9.06-0.77-12.23-1.51c-0.93-3.44-0.85-8.41-0.85-11.73l6.23-0.36
		c1.24,2.32,2.85,7.13,9.21,5.73c3.39-1,2.97-4.68,1.47-5.6c-5.87-2.97-14.99-4.84-17.45-12.43c-1.24-5.63,0.91-10.31,5.64-13.93
		C136.63,43.21,152.19,45.95,153.36,46.28z"/>
	<path class="st0" d="M191.59,46.12c0.19,0.17,2.9,0.89,2.69,2.05c-1.45,3.58-1.78,7.46-3.6,11.06c-1.9-0.99-4.81-0.46-6.04-2.6
		c-0.44-1.26,0.23-2.4-0.74-3.27c-1.53-1.02-4.57-1.92-7.48,0.98c-3.36,4.01-3.41,14.36,0.39,19.85c2.38,2.99,6.43,3.13,9.31,2.04
		c2.52-1.06,1.36-5.23,4.13-5.02c1.47-0.09,4.4-0.25,4.4-0.25s1.2,8.21,1.25,12.25c-10.12,3.15-23.78,5.56-31.38-1.89
		c-8.34-6.38-9.86-22.96-1.11-30.81C175.58,39.81,189.32,44.96,191.59,46.12z"/>
	<path class="st0" d="M383.17,70.21c-0.27-1.6-2.58-2.04-2.88-3.4c-0.12-0.75-0.21-1.47-0.3-2.19l-1.23-21.17l-0.19-0.6
		c-0.25-4.4-2.85-8.28-6.98-9.53l-2.66-0.61c-9.36-1.12-14.67,2.76-16.63,3.97l-0.02-1.81l-15.32,0.84c0,0-0.13,3.69,0.62,4.79
		c0.75,1.11,2.92,1.36,3.47,2.89l1.5,25.4c0,0-0.76,2.01-2.3,2.08c-1.54,0.07-2.45-1.11-2.68-2.09l-1.85-32.97l-18.25,1
		c0,0-0.13,3.69,0.62,4.79c0.75,1.11,2.92,1.36,3.47,2.89l1.4,25.63c0,0-1.23,1.16-2.21,2.14c-0.83,1.52-0.29,4.56-0.29,4.56
		l20.14-1.12c0.02,0.03,0.03,0.05,0.04,0.08l19.83-1.13c0,0,0.37-1.11-0.06-3.39c-0.28-1.59-3.05-2.24-3.36-3.6
		c0,0-1.1-19.81-1.11-19.94c-0.12-2.15,1.66-4,3.99-4.13c2.01-0.12,4.09,1.12,4.2,3.09c0.02,0.28,1.09,21.09,1.09,21.09
		s-1.25,1.33-2.23,2.3c-0.83,1.52-0.61,3.05,0.03,4.48l19.91-1.07C382.94,73.52,383.6,72.49,383.17,70.21z"/>
	<path class="st0" d="M219.42,133.31c-1.36,1.92-4.87,2.44-7.08,2.33c-6.48-0.3-6.41-5.25-4.98-6.71
		c4.75-3.76,10.39-4.82,15.48-5.85c1.47-0.08,3.1-0.54,4.91-1.02c-0.18-5.15-4.15-24.41-19.73-23.52
		c-4.7,0.27-14.21,2.76-17.62,13.54c-0.22,0.7-0.35,1.27-0.42,1.74c-0.48,1.72-0.82,3.5-1.02,5.31l-0.37,0.02
		c-0.5-2.36-0.68-5.48-1.02-8.22c-1.16-7.48-5.11-15.34-11.75-19.02c0.17-0.19-0.18,0.01-0.18,0.01c-3.26-2.39-7.53-3.06-11.41-3.21
		l-0.01-0.18c0,0-11.86,0.52-24.42,1.26c-8.8,0.51-18,0.86-23.39,2.39c-13.05,3.71-21.08,10.95-23.39,22.12
		c-1.71,8.74,1.05,18.33,8.54,23.98c6.13,4.25,14.12,5.63,21.16,3.39c7.43-1.9,14.18-9.45,15.22-17.05
		c1.14-7.11-1.89-14.14-6.87-18.98c0.19,0.64,0.33,1.3,0.37,1.99c0.1,1.77-0.58,8.89-7.9,9.65c-8.07,0.84-13.55-7.85-8.02-14.92
		c4.5-5.04,11.43-5.99,17.21-4.66c2.06,0.62,4.54,2.13,4.84,4.32l2.39,41.99c-0.27,1.67-1.54,1.93-2.98,2.56
		c-2.68,1.44-1.18,5.04-1.22,7.62c12.27-0.89,26.09-0.57,38.08-3.09c10.83-3.57,14.04-15.15,14.38-25.28
		c0.15-0.56-0.09-1.65,0.63-1.88c0.78,7.13,3.34,13.42,9.46,17.48c8.93,5.01,19.51,3.49,28.66-0.53c-0.04-3.86-0.61-7.51-1.04-11.71
		C221.27,127.45,220.35,131.53,219.42,133.31z M170.21,129.22c-0.5,4.07-1.17,8.53-4.51,11.29c-2.32,1.24-5.66,0.7-8.57,1.23
		c0,0-2.45-38.88-2.36-41.41c4.4-0.25,9.7-0.76,12.18,3.88C170.18,112.66,170.08,120.4,170.21,129.22z M205.34,109.74
		c1.22-1.17,2.9-1.2,4.18-0.79c1.5,0.01,2.35,2.44,2.35,2.44s1.39,2.61-4.06,6.3c-2.72,2.29-3,2.2-4.59,3.39
		C202.82,117.24,202.38,112.67,205.34,109.74z"/>
	<g>
		<path class="st0" d="M256.96,8.57c0,0,0.06,0.01,0.15,0.02c0.01-0.01,0.04-0.02,0.04-0.03L256.96,8.57z"/>
		<path class="st0" d="M326.96,34.06c4.18-0.24,7.37-3.82,7.13-8c-0.24-4.18-3.82-7.37-8-7.13c-4.18,0.23-7.37,3.82-7.13,7.99
			C319.2,31.1,322.79,34.3,326.96,34.06z"/>
		<path class="st0" d="M238.11,61.2c-0.16-2.71-0.83-5.25-1.89-7.59c-1.72-4.17-7.4-13.57-21.38-12.79
			C200.16,41.63,195.9,53.08,195.36,55c-1.02,2.7-1.5,5.64-1.33,8.7c0.22,3.89,1.49,7.47,3.5,10.52c1.29,2.16,2.95,4.11,5,5.69
			c2.34,1.86,5.08,2.97,7.97,3.52c2.16,0.55,4.45,0.79,6.8,0.65c3.23-0.18,6.24-1.06,8.94-2.44c0.65-0.25,1.3-0.52,1.91-0.8
			c4.78-2.74,7.93-7.53,9.21-12.76C237.97,65.9,238.24,63.58,238.11,61.2z M211.09,55.71c0.08-2.96,2-5.38,4.51-5.52
			c2.68-0.16,5.01,2.33,5.19,5.56c0,0.01,0,0.02,0,0.03c0.95,4.29,1.23,9.9,0.71,13.46c-0.15,2.88-2.04,5.2-4.51,5.34
			c-2.68,0.15-5.01-2.33-5.2-5.56c-0.01-0.14-1.25-4.64-0.85-12.57C211.34,48.51,211.04,55.95,211.09,55.71z"/>
		<path class="st0" d="M320.16,75.05l-0.37,0.02c-3.24-2.02-6.29-3.87-9.53-5.9c0,0-10.18-6-11.24-6.72
			c-2.3-1.71-3.96-4.92-3.58-8.07c2.26,0.98,3.66,2.92,5.75,4.09c4.2,2.7,9.92,3.11,14.18,0.3c3.55-2.23,4.4-6.69,3.62-10.69
			c-1.22-5.26-5.82-8.5-10.32-10.08c-9.67-3.04-15.01,1.22-16.37,0.01c-6.44-9.75-13.64-19.82-23.93-26.04c0,0-7.96-4.54-14.89-3.01
			c-7.61,1.68-15.56,7.37-12.18,20.22c0,0,2.99,7.99,11.82,8.87l-0.41-4.03c-0.15-2.57,1.73-5.25,4.05-6.48
			c1.24-0.81,3.99-0.96,5.65-0.87c9.49,1.85,16.89,9.15,23.36,16.15c-2.61,2.54-4.76,6.89-5.63,10.8
			c-3.7,19.16,17.34,26.6,29.2,34.75c0.92-0.05,9.98,7.34,12.45,11.8c4.71,8.38,4.77,17.85-2.32,26.99
			c-7.09,9.14-18.92,9.35-24.37,8.2c-3.52-0.75-9.2-3.34-10.98-5.45c0,0-6.99-4.82-6.97-12.66c0.01-7.84,3.56-11.79,8.75-14.3
			c4.67-1.92,10.23-1.13,13.94,2.52c2.76,3.34,3.98,8.6,2.55,12.55c-1.43,3.95-5.49,6.94-9.49,7.72c0.47,1.81,6.21,5.69,12.14,4.78
			c3.92-0.6,13.86-4.06,15.9-13c2.04-8.94-1.52-17.02-8.08-22.35c-10.09-8.44-23.69-6.97-30.55-3.59
			c-8.08,3.41-13.85,12.01-14.64,20.7c-1.1,9.81,3.7,19.66,11.96,25.81c11.71,8.53,25.55,11.05,41.98,4.71
			c12.03-5.1,19.63-16.64,20.78-30.84c0.53-27.05-18.68-33.22-19.15-35.03 M300.39,47.86c0.26-0.69,1.69-1.11,3.32-0.75
			c1.75,0.46,3.78,1.09,4.72,3.04c0,0,1.07,1.8-1.55,1.74c-0.92-0.02-5.35-0.25-6.62-3.12c-0.04-0.23,0-0.42,0.08-0.57
			C300.34,48.08,300.35,47.96,300.39,47.86z"/>
		<path class="st0" d="M336.17,84.4c-0.24-4.29,3.06-7.66,7.18-7.89c4.08-0.23,7.74,2.73,7.98,7.03c0.25,4.34-3.05,7.71-7.13,7.94
			C340.09,91.7,336.42,88.73,336.17,84.4z M344.13,90.22c3.38-0.19,5.9-3,5.7-6.6c-0.2-3.54-3.03-6.06-6.41-5.87
			c-3.43,0.2-5.95,3.02-5.75,6.56C337.88,87.92,340.71,90.41,344.13,90.22z M342.44,88.39l-1.31,0.07l-0.49-8.63l3.29-0.19
			c2.04-0.12,3.09,0.58,3.19,2.28c0.09,1.54-0.85,2.27-2.1,2.5l2.67,3.66l-1.46,0.08l-2.49-3.61l-1.51,0.08L342.44,88.39z
			 M343.73,83.45c1.11-0.06,2.09-0.2,2.02-1.52c-0.06-1.07-1.04-1.21-1.95-1.16l-1.79,0.1l0.16,2.67L343.73,83.45z"/>
		<path class="st0" d="M281,76.33c-0.28-1.6-2.57-2.04-2.88-3.4c-0.12-0.75-0.21-1.47-0.3-2.19l-1.23-21.17l-0.2-0.6
			c-0.25-4.4-2.85-8.27-6.98-9.53l-2.66-0.6c-9.36-1.12-14.67,2.75-16.62,3.97L250.11,41l-15.33,0.84c0,0-0.13,3.69,0.62,4.79
			c0.75,1.11,2.92,1.36,3.48,2.88l1.1,10.77c0.11,2.02,1.36,14.23-0.04,15.41c0,0-0.88,0.62-1.86,1.6
			c-0.84,1.52-0.61,3.05,0.02,4.48l20.15-1.05c0,0,0.42-1.04,0-3.31c-0.27-1.6-3.05-2.24-3.36-3.61c0,0-1.1-19.81-1.11-19.94
			c-0.12-2.15,1.67-4,3.99-4.13c2-0.11,4.09,1.12,4.2,3.09c0.02,0.28,1.09,21.09,1.09,21.09s-1.25,1.32-2.23,2.3
			c-0.83,1.52-0.61,3.05,0.03,4.48l20.11-1.25C280.96,79.45,281.43,78.6,281,76.33z"/>
		<path class="st0" d="M275.01,137.96c-0.56-0.15-0.52,0.58-0.88,0.78c-1.06,0.62-2.45,1.94-4.52,1.37
			c-2.08-0.57-2.48-1.51-2.73-2.79l-1.14-19.4l0.01,0.01l-1.96-35.32l-18.85,1.13c0,0-0.14,3.69,0.62,4.79
			c0.67,0.98,2.45,1.3,3.23,2.43l-0.15-0.01c0,0,2.23,36.05,2.2,38.73c0.59,3.83-4.04,3.68-4.28,1.51
			c-0.12-1.14-0.52-7.95-0.76-11.98l-2.06-35.34l-18.74,1.15c0,0-0.13,3.69,0.62,4.79c0.74,1.09,3.1,1.69,3.69,3.16l2.39,37.92
			c0,0,0.1,1.72-1.68,2.85c-1.77,1.14-1.13,4.29-1.01,6.5c2.02-0.92,5.6-1.08,5.6-1.08c10.74-1.9,20.84,4.15,31.11,6.87
			c3.17,0.74,6.69,1.5,9.75,0.41L275.01,137.96z"/>
	</g>
	<path class="st0" d="M117.55,37.03c-0.25-4.47-4.09-7.9-8.57-7.64c-1.41,0.08-2.69,0.55-3.81,1.24c-0.06,0.01-0.13,0.03-0.19,0.03
		c-0.35,0.18-0.63,0.45-0.87,0.75c-0.46,0.4-0.86,0.85-1.22,1.34c-0.21,0.11-0.44,0.16-0.74,0.1l-0.24-4.24L79.7,29.87
		c0,0,0.16,3.19,0.6,4.45c0.56,1.8,4.63,1.83,4.09,5.17c-2.15,10.61-3.58,21.98-5.74,32.4l-0.49,0.03
		c-3.2-10.81-6.25-21.96-9.27-32.21c0.06-2.9,2.51-2.35,3.67-4.12c0.8-2.07,0.37-5.22,0.37-5.22l-23.76,1.36c0,0,0.01,2.32,0.3,4.15
		c0.49,2.18,3.15,1.7,4,3.68c1.02,3.26,2.01,6.99,2.01,6.99l-4.03,28.93c-3.41-11.39-6.64-23.26-9.83-34.11
		c-0.1-1.83,2.44-3.13,3.67-4.12c0.8-2.07,0.37-5.22,0.37-5.22l-23.76,1.36c0,0,0.01,2.32,0.3,4.14c0.49,2.18,3.15,1.71,4,3.68
		c4.73,15.18,8.52,31.36,12.69,46.39l9.24,32.95c3.65-3.7,8.09-6.53,12.15-9.52c1.15-8.9,3.76-17.88,4.72-26.94
		c0.16-0.38,0.12-1.11,0.68-0.96c2.06,7.06,4.11,13.93,6.18,21.35c5.37-2.7,10.92-5.22,16.5-7.38l5.36-28.63l4.76-26.21
		c0.43-2.23,0.27-4.98,2.79-5.86l0.14,0.12c-0.06,0.47-0.09,0.95-0.06,1.44c0.16,2.84,1.77,5.25,4.07,6.57
		c1.08,0.71,2.31,1.16,3.55,1.18c2.22,0.24,4.38-0.62,5.95-2.18c0.22-0.2,0.38-0.41,0.56-0.61c0.01-0.01,0.03-0.03,0.04-0.04
		c1.05-1.16,1.67-2.47,1.89-3.93c0.04-0.25,0.07-0.5,0.09-0.75c0.01-0.11,0.04-0.22,0.04-0.33c0-0.05-0.02-0.08-0.02-0.13
		C117.53,37.49,117.57,37.27,117.55,37.03z"/>
	<path class="st0" d="M122.29,82.47c-0.4-0.53-2.07-0.8-2.33-2.07l-1.78-32.82h0V47.5l-18.57,1.02c0,0-0.13,3.69,0.62,4.79
		c0.22,0.33,0.59,0.58,0.99,0.82c0.53,0.42,1.11,0.72,1.57,0.93c0.33,0.25,0.61,0.53,0.8,0.9l0.56,8.44l1.04,19.31
		c-0.43,0.52-1.36,1.6-2.03,2.05c-1.34,2.29-0.68,4.27-0.71,6.85c7.24-2.07,13.81-2.99,21.48-3.98
		C123.44,86.45,124.73,83.25,122.29,82.47z"/>
</g>
</svg>
